<svg width="36" height="36" viewBox="0 0 36 36" fill="none" xmlns="http://www.w3.org/2000/svg">
<path d="M22.65 3.75H13.35C9.98968 3.75 8.30954 3.75 7.02606 4.40396C5.89709 4.97921 4.97921 5.89709 4.40396 7.02606C3.75 8.30954 3.75 9.98968 3.75 13.35V22.65C3.75 26.0103 3.75 27.6904 4.40396 28.974C4.97921 30.1029 5.89709 31.0207 7.02606 31.596C8.30954 32.25 9.98968 32.25 13.35 32.25H22.65C26.0103 32.25 27.6904 32.25 28.974 31.596C30.1029 31.0207 31.0207 30.1029 31.596 28.974C32.25 27.6904 32.25 26.0103 32.25 22.65V13.35C32.25 9.98968 32.25 8.30954 31.596 7.02606C31.0207 5.89709 30.1029 4.97921 28.974 4.40396C27.6904 3.75 26.0103 3.75 22.65 3.75Z" stroke="white" stroke-width="1.25" stroke-linecap="round"/>
<path d="M19.5 25.5H26.25" stroke="white" stroke-width="1.25" stroke-linecap="round"/>
<path d="M10.5 16.5L14.9003 19.8018C15.7002 20.4021 15.6999 21.6021 14.8997 22.2018L10.5 25.5" stroke="white" stroke-width="1.25" stroke-linecap="round"/>
</svg>
