<svg width="44" height="44" viewBox="0 0 44 44" fill="none" xmlns="http://www.w3.org/2000/svg">
<path d="M34.8333 33V18.0188C34.8333 17.0463 34.4289 16.136 33.6765 15.5197C31.6998 13.9002 27.6774 10.6814 24.4766 7.82036C23.0481 6.54348 20.8767 6.46281 19.4219 7.70972L10.4471 15.4025C9.63436 16.0991 9.16663 17.116 9.16663 18.1864V33C9.16663 35.0251 10.8082 36.6667 12.8333 36.6667H13.75C15.775 36.6667 17.4166 35.0251 17.4166 33V29.3333C17.4166 27.3082 19.0582 25.6667 21.0833 25.6667H22.9166C24.9417 25.6667 26.5833 27.3082 26.5833 29.3333V33C26.5833 35.0251 28.2249 36.6667 30.25 36.6667H31.1666C33.1917 36.6667 34.8333 35.0251 34.8333 33Z" stroke="white" stroke-width="1.25" stroke-linecap="round"/>
</svg>
