<svg width="297" height="297" viewBox="0 0 297 297" fill="none" xmlns="http://www.w3.org/2000/svg">
<path d="M186.863 30.9375H110.137C82.4149 30.9375 68.5537 30.9375 57.965 36.3326C48.651 41.0784 41.0784 48.651 36.3326 57.965C30.9375 68.5537 30.9375 82.4149 30.9375 110.137V186.863C30.9375 214.585 30.9375 228.446 36.3326 239.035C41.0784 248.349 48.651 255.921 57.965 260.667C68.5537 266.062 82.4149 266.062 110.137 266.062H186.863C214.585 266.062 228.446 266.062 239.035 260.667C248.349 255.921 255.921 248.349 260.667 239.035C266.062 228.446 266.062 214.585 266.062 186.863V110.137C266.062 82.4149 266.062 68.5537 260.667 57.965C255.921 48.651 248.349 41.0784 239.035 36.3326C228.446 30.9375 214.585 30.9375 186.863 30.9375Z" stroke="white" stroke-width="5" stroke-linecap="round"/>
<path d="M150.669 173.25C122.914 173.25 99.0385 185.319 88.4457 205.14C82.0032 217.196 93.6878 228.938 107.357 228.938H193.982C207.651 228.938 219.336 217.196 212.893 205.14C202.3 185.319 178.425 173.25 150.669 173.25Z" stroke="white" stroke-width="5" stroke-linecap="round"/>
<path d="M181.607 105.188C181.607 122.274 167.756 136.125 150.669 136.125C133.583 136.125 119.732 122.274 119.732 105.188C119.732 88.1012 133.583 74.25 150.669 74.25C167.756 74.25 181.607 88.1012 181.607 105.188Z" stroke="white" stroke-width="5" stroke-linecap="round"/>
</svg>
